<svg xmlns="http://www.w3.org/2000/svg" width="577.18" height="639.27" viewBox="0 0 577.18 639.27"><defs><style>.cls-1,.cls-3{fill:#fff;}.cls-2{fill:#ff7b00;}.cls-3{font-size:20px;font-family:MyriadPro-Regular, Myriad Pro;}.cls-4{letter-spacing:0.01em;}.cls-5{letter-spacing:0em;}.cls-6{letter-spacing:-0.01em;}.cls-7{letter-spacing:-0.01em;}.cls-8{letter-spacing:-0.01em;}.cls-9{letter-spacing:0.02em;}.cls-10{letter-spacing:-0.01em;}.cls-11{letter-spacing:0em;}.cls-12{letter-spacing:0.01em;}.cls-13{letter-spacing:0em;}.cls-14{letter-spacing:-0.01em;}.cls-15{letter-spacing:-0.01em;}.cls-16{letter-spacing:-0.01em;}.cls-17{letter-spacing:0.03em;}.cls-18{letter-spacing:0em;}.cls-19{letter-spacing:0.02em;}.cls-20{letter-spacing:-0.03em;}.cls-21{letter-spacing:-0.02em;}.cls-22{letter-spacing:-0.04em;}.cls-23{letter-spacing:0em;}</style></defs><g id="Layer_1" data-name="Layer 1"><rect class="cls-1" x="114.34" y="12.47" width="335" height="26" rx="12.3"/><path class="cls-1" d="M437,15.47a9.31,9.31,0,0,1,9.3,9.3v1.4a9.31,9.31,0,0,1-9.3,9.3H126.64a9.31,9.31,0,0,1-9.3-9.3v-1.4a9.31,9.31,0,0,1,9.3-9.3H437m0-6H126.64a15.3,15.3,0,0,0-15.3,15.3v1.4a15.3,15.3,0,0,0,15.3,15.3H437a15.3,15.3,0,0,0,15.3-15.3v-1.4A15.3,15.3,0,0,0,437,9.47Z"/><rect class="cls-2" x="112.84" y="10.97" width="290" height="29" rx="12.68"/><path class="cls-1" d="M390.16,12.47a11.2,11.2,0,0,1,11.18,11.18v3.64a11.19,11.19,0,0,1-11.18,11.18H125.52a11.19,11.19,0,0,1-11.18-11.18V23.65a11.19,11.19,0,0,1,11.18-11.18H390.16m0-3H125.52a14.18,14.18,0,0,0-14.18,14.18v3.64a14.18,14.18,0,0,0,14.18,14.18H390.16a14.18,14.18,0,0,0,14.18-14.18V23.65A14.18,14.18,0,0,0,390.16,9.47Z"/><text class="cls-3" transform="translate(1.42 69.27)">E<tspan class="cls-4" x="9.84" y="0">x</tspan><tspan class="cls-5" x="19.36" y="0">t</tspan><tspan class="cls-6" x="25.98" y="0">r</tspan><tspan class="cls-7" x="32.42" y="0">a</tspan><tspan class="cls-8" x="41.9" y="0">v</tspan><tspan x="51.32" y="0">e</tspan><tspan class="cls-9" x="61.34" y="0">r</tspan><tspan class="cls-10" x="68.36" y="0">t</tspan><tspan class="cls-11" x="74.86" y="0">ed</tspan></text><path class="cls-1" d="M14.22,16.3H2V9.82H22.41v4.77c-6.57,7.7-7.29,12.65-7.83,23.76H6.84C7.38,29.35,8.91,23.64,14.22,16.3Z"/><path class="cls-1" d="M26.19,31.06c0-3.33,2-5.31,4.68-6.75v-.18c-2.25-1.71-3.78-3.78-3.78-6.75,0-5,4-8.1,9.54-8.1,5.31,0,8.91,3.06,8.91,7.92a7.26,7.26,0,0,1-3.65,6v.18c2.79,1.48,4.91,3.73,4.91,7.51,0,4.59-4.19,8-10.44,8C30.55,38.89,26.19,35.74,26.19,31.06Zm13.45-.45c0-2.07-2-2.88-5.35-4.32a6.12,6.12,0,0,0-1.49,3.87c0,2.25,1.76,3.42,3.74,3.42C38.25,33.58,39.64,32.77,39.64,30.61Zm-.31-12.87c0-2-1.08-3.15-2.88-3.15a2.48,2.48,0,0,0-2.61,2.79c0,1.89,1.53,2.88,4.23,4A6.25,6.25,0,0,0,39.33,17.74Z"/><path class="cls-1" d="M49.59,17.83c0-5.85,3.24-9.27,7.56-9.27s7.56,3.42,7.56,9.27-3.24,9.36-7.56,9.36S49.59,23.68,49.59,17.83Zm9.81,0c0-4-1.08-5-2.25-5s-2.25,1.08-2.25,5S56,23,57.15,23,59.4,21.79,59.4,17.83ZM73.89,8.56h4.32L62.55,38.89H58.23Zm-2.25,21c0-5.85,3.24-9.27,7.56-9.27s7.56,3.42,7.56,9.27-3.24,9.36-7.56,9.36S71.64,35.38,71.64,29.53Zm9.81,0c0-4-1.08-5-2.25-5S77,25.57,77,29.53,78,34.66,79.2,34.66,81.45,33.49,81.45,29.53Z"/><text class="cls-3" transform="translate(477.42 68.27)"><tspan class="cls-12">I</tspan><tspan class="cls-13" x="4.98" y="0">n</tspan><tspan x="16" y="0">t</tspan><tspan class="cls-14" x="22.62" y="0">r</tspan><tspan class="cls-15" x="28.96" y="0">o</tspan><tspan class="cls-8" x="39.8" y="0">v</tspan><tspan x="49.22" y="0">e</tspan><tspan class="cls-9" x="59.24" y="0">r</tspan><tspan class="cls-16" x="66.26" y="0">t</tspan><tspan class="cls-11" x="72.76" y="0">ed</tspan></text><path class="cls-1" d="M477.86,36.1c9.43-9.61,14.16-15,14.16-20,0-3.58-1.93-6.37-6.26-6.37-2.62,0-4.95,1.59-6.71,3.75l-1.3-1.23C479.91,9.88,482.44,8,485.94,8c5.12,0,8.11,3.2,8.11,8.06,0,5.73-5.21,11.21-13.21,19.67,1.6-.1,3.27-.2,4.85-.2h9.79v1.78H477.86Z"/><path class="cls-1" d="M499.42,36.1c9.42-9.61,14.15-15,14.15-20,0-3.58-1.92-6.37-6.26-6.37-2.62,0-4.95,1.59-6.71,3.75l-1.3-1.23C501.46,9.88,504,8,507.5,8c5.11,0,8.11,3.2,8.11,8.06,0,5.73-5.21,11.21-13.21,19.67,1.6-.1,3.26-.2,4.85-.2H517v1.78H499.42Z"/><path class="cls-1" d="M520.91,16.43c0-5.93,2.43-9.27,6.34-9.27s6.35,3.34,6.35,9.27-2.43,9.36-6.35,9.36S520.91,22.44,520.91,16.43Zm10.94,0c0-5-1.81-7.8-4.6-7.8s-4.6,2.78-4.6,7.8,1.81,7.88,4.6,7.88S531.85,21.44,531.85,16.43Zm12.71-9.27h1.73L529.74,37.89H528Zm-3.71,21.37c0-5.93,2.43-9.27,6.35-9.27s6.34,3.34,6.34,9.27-2.43,9.36-6.34,9.36S540.85,34.54,540.85,28.53Zm10.95,0c0-5-1.81-7.79-4.6-7.79s-4.6,2.78-4.6,7.79,1.81,7.88,4.6,7.88S551.8,33.54,551.8,28.53Z"/><rect class="cls-1" x="115.34" y="160.47" width="335" height="26" rx="12.3"/><path class="cls-1" d="M438,163.47a9.31,9.31,0,0,1,9.3,9.3v1.4a9.31,9.31,0,0,1-9.3,9.3H127.64a9.31,9.31,0,0,1-9.3-9.3v-1.4a9.31,9.31,0,0,1,9.3-9.3H438m0-6H127.64a15.3,15.3,0,0,0-15.3,15.3v1.4a15.3,15.3,0,0,0,15.3,15.3H438a15.3,15.3,0,0,0,15.3-15.3v-1.4a15.3,15.3,0,0,0-15.3-15.3Z"/><rect class="cls-2" x="113.84" y="158.97" width="192" height="29" rx="10.07"/><path class="cls-1" d="M295.77,160.47a8.58,8.58,0,0,1,8.57,8.57v8.86a8.57,8.57,0,0,1-8.57,8.57H123.91a8.57,8.57,0,0,1-8.57-8.57V169a8.58,8.58,0,0,1,8.57-8.57H295.77m0-3H123.91A11.57,11.57,0,0,0,112.34,169v8.86a11.57,11.57,0,0,0,11.57,11.57H295.77a11.57,11.57,0,0,0,11.57-11.57V169a11.57,11.57,0,0,0-11.57-11.57Z"/><text class="cls-3" transform="translate(2.42 217.27)"><tspan class="cls-12">I</tspan><tspan class="cls-13" x="4.98" y="0">n</tspan><tspan x="16" y="0">tuiti</tspan><tspan class="cls-8" x="49.62" y="0">v</tspan><tspan x="59.04" y="0">e</tspan></text><path class="cls-1" d="M2,182.84,5.41,178a9,9,0,0,0,5.76,2.7c2.7,0,4.23-1.17,4.23-3.69s-1.62-3.69-3.87-3.69a6.18,6.18,0,0,0-4,1.35l-3.33-2.16L5,157.82H21.88v6.48H11.62l-.36,4.14A7.23,7.23,0,0,1,14,168c4.95,0,9.18,2.79,9.18,8.82,0,6.39-5,10.08-10.8,10.08A14,14,0,0,1,2,182.84Z"/><path class="cls-1" d="M26.92,181.94c6.75-6.21,12-11,12-14.85,0-2.56-1.44-3.78-3.51-3.78-1.89,0-3.33,1.35-4.68,2.7l-4.14-4.14c3-3.15,5.67-4.59,9.9-4.59,5.76,0,9.81,3.69,9.81,9.36,0,4.59-4.32,9.63-8.19,13.59a46,46,0,0,1,4.77-.36h4.77v6.48H26.92Z"/><path class="cls-1" d="M50.59,165.83c0-5.85,3.24-9.27,7.56-9.27s7.56,3.42,7.56,9.27-3.24,9.36-7.56,9.36S50.59,171.68,50.59,165.83Zm9.81,0c0-4-1.08-5-2.25-5s-2.25,1.08-2.25,5S57,171,58.15,171,60.4,169.79,60.4,165.83Zm14.49-9.27h4.32L63.55,186.89H59.23Zm-2.25,21c0-5.85,3.24-9.27,7.56-9.27s7.56,3.42,7.56,9.27-3.24,9.36-7.56,9.36S72.64,183.38,72.64,177.53Zm9.81,0c0-4-1.08-5-2.25-5s-2.25,1.08-2.25,5,1.08,5.13,2.25,5.13S82.45,181.49,82.45,177.53Z"/><text class="cls-3" transform="translate(478.42 216.27)">Obse<tspan class="cls-17" x="43.1" y="0">r</tspan><tspan class="cls-18" x="50.14" y="0">v</tspan><tspan x="59.68" y="0">a</tspan><tspan class="cls-18" x="69.32" y="0">n</tspan><tspan class="cls-11" x="80.34" y="0">t</tspan></text><path class="cls-1" d="M490.94,164.53c0-1.33.1-3.65.19-5H491c-.72,1.22-1.53,2.28-2.34,3.59l-8.44,11.9h17v1.72H477.74v-1.18l13.36-19h1.77v28.77h-1.93Z"/><path class="cls-1" d="M500.36,178c0-3.9,3-6.69,5.74-8.13v-.18c-2.09-1.38-4.11-3.53-4.11-6.58,0-4.15,3.31-7.05,7.52-7.05,4.9,0,7.77,3.22,7.77,7.51,0,3.18-2.43,6-4.09,7.33v.17c2.47,1.53,5,3.46,5,7.32,0,4.18-3.5,7.52-8.74,7.52S500.36,182.5,500.36,178Zm15.85.36c0-4.42-4.33-6-8.8-7.72-2.92,1.72-5.09,4.13-5.09,7.27,0,3.55,3,6.34,7.18,6.34S516.21,181.63,516.21,178.34Zm-.84-14.73a5.64,5.64,0,0,0-5.88-5.91,5.28,5.28,0,0,0-5.53,5.39c0,4.07,3.88,5.71,7.64,7.2C514,168.3,515.37,166.08,515.37,163.61Z"/><path class="cls-1" d="M521.91,164.43c0-5.93,2.43-9.27,6.34-9.27s6.35,3.34,6.35,9.27-2.43,9.36-6.35,9.36S521.91,170.44,521.91,164.43Zm10.94,0c0-5-1.81-7.8-4.6-7.8s-4.6,2.78-4.6,7.8,1.81,7.88,4.6,7.88S532.85,169.44,532.85,164.43Zm12.71-9.27h1.73l-16.55,30.73H529Zm-3.71,21.37c0-5.93,2.43-9.27,6.35-9.27s6.34,3.34,6.34,9.27-2.43,9.36-6.34,9.36S541.85,182.54,541.85,176.53Zm10.95,0c0-5-1.81-7.79-4.6-7.79s-4.6,2.78-4.6,7.79,1.81,7.88,4.6,7.88S552.8,181.54,552.8,176.53Z"/><rect class="cls-1" x="115.34" y="299.47" width="335" height="26" rx="12.3"/><path class="cls-1" d="M438,302.47a9.31,9.31,0,0,1,9.3,9.3v1.4a9.31,9.31,0,0,1-9.3,9.3H127.64a9.31,9.31,0,0,1-9.3-9.3v-1.4a9.31,9.31,0,0,1,9.3-9.3H438m0-6H127.64a15.3,15.3,0,0,0-15.3,15.3v1.4a15.3,15.3,0,0,0,15.3,15.3H438a15.3,15.3,0,0,0,15.3-15.3v-1.4a15.3,15.3,0,0,0-15.3-15.3Z"/><rect class="cls-2" x="181.84" y="297.97" width="270" height="29" rx="12.19"/><path class="cls-1" d="M439.65,299.47a10.71,10.71,0,0,1,10.69,10.69v4.62a10.7,10.7,0,0,1-10.69,10.69H194a10.7,10.7,0,0,1-10.69-10.69v-4.62A10.7,10.7,0,0,1,194,299.47H439.65m0-3H194a13.69,13.69,0,0,0-13.69,13.69v4.62A13.69,13.69,0,0,0,194,328.47H439.65a13.69,13.69,0,0,0,13.69-13.69v-4.62a13.69,13.69,0,0,0-13.69-13.69Z"/><text class="cls-3" transform="translate(2.42 356.27)"><tspan class="cls-15">T</tspan><tspan x="9.8" y="0">hin</tspan><tspan class="cls-19" x="36.68" y="0">k</tspan><tspan class="cls-5" x="46.4" y="0">ing</tspan></text><path class="cls-1" d="M2.86,324.1c9.43-9.61,14.16-15,14.16-20,0-3.58-1.93-6.37-6.26-6.37-2.62,0-4.95,1.59-6.71,3.75l-1.3-1.23c2.16-2.42,4.69-4.26,8.19-4.26,5.12,0,8.11,3.2,8.11,8.06,0,5.73-5.21,11.21-13.21,19.67,1.6-.1,3.27-.2,4.85-.2h9.79v1.78H2.86Z"/><path class="cls-1" d="M25.08,323.1l1.22-1.35a6.23,6.23,0,0,0,4.89,2.39c4.59,0,8.54-3.71,8.54-14.52,0-7-2.32-11.87-7.44-11.87-3.32,0-5.81,3.17-5.81,7.28s1.85,7.23,6.23,7.23c2.08,0,4.81-1.29,7.18-4.65l0,2.11c-2,2.55-4.69,4.21-7.45,4.21-5,0-8-3.1-8-8.9,0-5.23,3.61-9,7.87-9,5.74,0,9.38,4.85,9.38,13.58,0,12.05-5,16.27-10.57,16.27A7.79,7.79,0,0,1,25.08,323.1Z"/><path class="cls-1" d="M45.91,304.43c0-5.93,2.43-9.27,6.34-9.27s6.35,3.34,6.35,9.27-2.43,9.36-6.35,9.36S45.91,310.44,45.91,304.43Zm10.94,0c0-5-1.81-7.8-4.6-7.8s-4.6,2.78-4.6,7.8,1.81,7.88,4.6,7.88S56.85,309.44,56.85,304.43Zm12.71-9.27h1.73L54.74,325.89H53Zm-3.71,21.37c0-5.93,2.43-9.27,6.35-9.27s6.34,3.34,6.34,9.27-2.43,9.36-6.34,9.36S65.85,322.54,65.85,316.53Zm11,0c0-5-1.81-7.79-4.6-7.79s-4.6,2.78-4.6,7.79,1.81,7.88,4.6,7.88S76.8,321.54,76.8,316.53Z"/><text class="cls-3" transform="translate(478.42 355.27)"><tspan class="cls-20">F</tspan><tspan x="9.12" y="0">eeling</tspan></text><path class="cls-1" d="M491.22,302.3H479v-6.48h20.43v4.77c-6.57,7.7-7.29,12.65-7.83,23.76h-7.74C484.38,315.35,485.91,309.64,491.22,302.3Z"/><path class="cls-1" d="M504.27,318.14h6.12V303.38H505v-4.77a20.24,20.24,0,0,0,7.47-2.79h5.67v22.32h5.13v6.21h-19Z"/><path class="cls-1" d="M526.59,303.83c0-5.85,3.24-9.27,7.56-9.27s7.56,3.42,7.56,9.27-3.24,9.36-7.56,9.36S526.59,309.68,526.59,303.83Zm9.81,0c0-4-1.08-5-2.25-5s-2.25,1.08-2.25,5S533,309,534.15,309,536.4,307.79,536.4,303.83Zm14.49-9.27h4.32l-15.66,30.33h-4.32Zm-2.25,21c0-5.85,3.24-9.27,7.56-9.27s7.56,3.42,7.56,9.27-3.24,9.36-7.56,9.36S548.64,321.38,548.64,315.53Zm9.81,0c0-4-1.08-5-2.25-5s-2.25,1.08-2.25,5,1.08,5.13,2.25,5.13S558.45,319.49,558.45,315.53Z"/><rect class="cls-1" x="114.34" y="429.47" width="335" height="26" rx="12.3"/><path class="cls-1" d="M437,432.47a9.31,9.31,0,0,1,9.3,9.3v1.4a9.31,9.31,0,0,1-9.3,9.3H126.64a9.31,9.31,0,0,1-9.3-9.3v-1.4a9.31,9.31,0,0,1,9.3-9.3H437m0-6H126.64a15.3,15.3,0,0,0-15.3,15.3v1.4a15.3,15.3,0,0,0,15.3,15.3H437a15.3,15.3,0,0,0,15.3-15.3v-1.4a15.3,15.3,0,0,0-15.3-15.3Z"/><rect class="cls-2" x="112.84" y="427.97" width="270" height="29" rx="12.19"/><path class="cls-1" d="M370.65,429.47a10.71,10.71,0,0,1,10.69,10.69v4.62a10.7,10.7,0,0,1-10.69,10.69H125a10.7,10.7,0,0,1-10.69-10.69v-4.62A10.7,10.7,0,0,1,125,429.47H370.65m0-3H125a13.69,13.69,0,0,0-13.69,13.69v4.62A13.69,13.69,0,0,0,125,458.47H370.65a13.69,13.69,0,0,0,13.69-13.69v-4.62a13.69,13.69,0,0,0-13.69-13.69Z"/><text class="cls-3" transform="translate(1.42 486.27)">Jud<tspan class="cls-16" x="29.7" y="0">g</tspan><tspan x="40.76" y="0">ing</tspan></text><path class="cls-1" d="M14.22,433.3H2v-6.48H22.41v4.77c-6.57,7.7-7.29,12.65-7.83,23.76H6.84C7.38,446.35,8.91,440.64,14.22,433.3Z"/><path class="cls-1" d="M37.35,439.87c0-1.93.18-4.81.27-6.75h-.18c-.72,1.71-1.53,3.42-2.34,5.13l-2.61,4.86H47.61V449H25.2v-5.4l9.72-16.74h9.63v28.53h-7.2Z"/><path class="cls-1" d="M49.59,434.83c0-5.85,3.24-9.27,7.56-9.27s7.56,3.42,7.56,9.27-3.24,9.36-7.56,9.36S49.59,440.68,49.59,434.83Zm9.81,0c0-4-1.08-5-2.25-5s-2.25,1.08-2.25,5S56,440,57.15,440,59.4,438.79,59.4,434.83Zm14.49-9.27h4.32L62.55,455.89H58.23Zm-2.25,21c0-5.85,3.24-9.27,7.56-9.27s7.56,3.42,7.56,9.27-3.24,9.36-7.56,9.36S71.64,452.38,71.64,446.53Zm9.81,0c0-4-1.08-5-2.25-5s-2.25,1.08-2.25,5,1.08,5.13,2.25,5.13S81.45,450.49,81.45,446.53Z"/><text class="cls-3" transform="translate(477.42 485.27)"><tspan class="cls-21">P</tspan><tspan class="cls-14" x="10.32" y="0">r</tspan><tspan x="16.66" y="0">ospe</tspan><tspan class="cls-4" x="56.96" y="0">c</tspan><tspan x="66.18" y="0">ting</tspan></text><path class="cls-1" d="M477.86,453.1c9.43-9.61,14.16-15,14.16-20,0-3.58-1.93-6.37-6.26-6.37-2.62,0-4.95,1.59-6.71,3.75l-1.3-1.23c2.16-2.42,4.69-4.26,8.19-4.26,5.12,0,8.11,3.2,8.11,8.06,0,5.73-5.21,11.21-13.21,19.67,1.6-.1,3.27-.2,4.85-.2h9.79v1.78H477.86Z"/><path class="cls-1" d="M499.91,441.31c0-12.05,5-16.27,10.58-16.27a7.81,7.81,0,0,1,6.07,2.79l-1.21,1.35a6.26,6.26,0,0,0-4.89-2.39c-4.59,0-8.55,3.71-8.55,14.52,0,7,2.33,11.87,7.44,11.87,3.32,0,5.82-3.17,5.82-7.28s-1.86-7.23-6.23-7.23c-2.08,0-4.81,1.29-7.18,4.65l0-2.11c2-2.55,4.69-4.21,7.45-4.21,5,0,8,3.1,8,8.9,0,5.23-3.6,9-7.87,9C503.56,454.89,499.91,450,499.91,441.31Z"/><path class="cls-1" d="M520.91,433.43c0-5.93,2.43-9.27,6.34-9.27s6.35,3.34,6.35,9.27-2.43,9.36-6.35,9.36S520.91,439.44,520.91,433.43Zm10.94,0c0-5-1.81-7.8-4.6-7.8s-4.6,2.78-4.6,7.8,1.81,7.88,4.6,7.88S531.85,438.44,531.85,433.43Zm12.71-9.27h1.73l-16.55,30.73H528Zm-3.71,21.37c0-5.93,2.43-9.27,6.35-9.27s6.34,3.34,6.34,9.27-2.43,9.36-6.34,9.36S540.85,451.54,540.85,445.53Zm10.95,0c0-5-1.81-7.79-4.6-7.79s-4.6,2.78-4.6,7.79,1.81,7.88,4.6,7.88S551.8,450.54,551.8,445.53Z"/><rect class="cls-1" x="115.34" y="577.47" width="335" height="26" rx="12.3"/><path class="cls-1" d="M438,580.47a9.31,9.31,0,0,1,9.3,9.3v1.4a9.31,9.31,0,0,1-9.3,9.3H127.64a9.31,9.31,0,0,1-9.3-9.3v-1.4a9.31,9.31,0,0,1,9.3-9.3H438m0-6H127.64a15.3,15.3,0,0,0-15.3,15.3v1.4a15.3,15.3,0,0,0,15.3,15.3H438a15.3,15.3,0,0,0,15.3-15.3v-1.4a15.3,15.3,0,0,0-15.3-15.3Z"/><rect class="cls-2" x="113.84" y="575.97" width="191" height="29" rx="10.04"/><path class="cls-1" d="M294.8,577.47a8.55,8.55,0,0,1,8.54,8.54v8.92a8.55,8.55,0,0,1-8.54,8.54H123.88a8.55,8.55,0,0,1-8.54-8.54V586a8.55,8.55,0,0,1,8.54-8.54H294.8m0-3H123.88A11.54,11.54,0,0,0,112.34,586v8.92a11.54,11.54,0,0,0,11.54,11.54H294.8a11.54,11.54,0,0,0,11.54-11.54V586a11.54,11.54,0,0,0-11.54-11.54Z"/><text class="cls-3" transform="translate(2.42 634.27)"><tspan class="cls-16">A</tspan><tspan x="12.12" y="0">sse</tspan><tspan class="cls-9" x="37.98" y="0">r</tspan><tspan x="45" y="0">ti</tspan><tspan class="cls-8" x="56.3" y="0">v</tspan><tspan class="cls-11" x="65.72" y="0">e</tspan></text><path class="cls-1" d="M2,599.84,5.41,595a9,9,0,0,0,5.76,2.7c2.7,0,4.23-1.17,4.23-3.69s-1.62-3.69-3.87-3.69a6.18,6.18,0,0,0-4,1.35l-3.33-2.16L5,574.82H21.88v6.48H11.62l-.36,4.14A7.23,7.23,0,0,1,14,585c4.95,0,9.18,2.79,9.18,8.82,0,6.39-5,10.08-10.8,10.08A14,14,0,0,1,2,599.84Z"/><path class="cls-1" d="M38.35,587.87c0-1.93.18-4.81.27-6.75h-.18c-.72,1.71-1.53,3.42-2.34,5.13l-2.61,4.86H48.61V597H26.2v-5.4l9.72-16.74h9.63v28.53h-7.2Z"/><path class="cls-1" d="M50.59,582.83c0-5.85,3.24-9.27,7.56-9.27s7.56,3.42,7.56,9.27-3.24,9.36-7.56,9.36S50.59,588.68,50.59,582.83Zm9.81,0c0-4-1.08-5-2.25-5s-2.25,1.08-2.25,5S57,588,58.15,588,60.4,586.79,60.4,582.83Zm14.49-9.27h4.32L63.55,603.89H59.23Zm-2.25,21c0-5.85,3.24-9.27,7.56-9.27s7.56,3.42,7.56,9.27-3.24,9.36-7.56,9.36S72.64,600.38,72.64,594.53Zm9.81,0c0-4-1.08-5-2.25-5s-2.25,1.08-2.25,5,1.08,5.13,2.25,5.13S82.45,598.49,82.45,594.53Z"/><text class="cls-3" transform="translate(478.42 633.27)"><tspan class="cls-22">T</tspan><tspan x="9.04" y="0">u</tspan><tspan class="cls-23" x="20.06" y="0">r</tspan><tspan x="26.68" y="0">bule</tspan><tspan class="cls-13" x="63.82" y="0">n</tspan><tspan class="cls-11" x="74.84" y="0">t</tspan></text><path class="cls-1" d="M490.94,581.53c0-1.33.1-3.65.19-5H491c-.72,1.22-1.53,2.28-2.34,3.59l-8.44,11.9h17v1.72H477.74v-1.18l13.36-19h1.77v28.77h-1.93Z"/><path class="cls-1" d="M500.91,589.31c0-12,5-16.27,10.58-16.27a7.81,7.81,0,0,1,6.07,2.79l-1.21,1.35a6.26,6.26,0,0,0-4.89-2.39c-4.59,0-8.55,3.71-8.55,14.52,0,7,2.33,11.87,7.44,11.87,3.32,0,5.82-3.17,5.82-7.28s-1.86-7.23-6.23-7.23c-2.08,0-4.81,1.29-7.18,4.65l0-2.11c2-2.55,4.69-4.21,7.45-4.21,5,0,8,3.1,8,8.9,0,5.23-3.6,9-7.87,9C504.56,602.89,500.91,598,500.91,589.31Z"/><path class="cls-1" d="M521.91,581.43c0-5.93,2.43-9.27,6.34-9.27s6.35,3.34,6.35,9.27-2.43,9.36-6.35,9.36S521.91,587.44,521.91,581.43Zm10.94,0c0-5-1.81-7.8-4.6-7.8s-4.6,2.78-4.6,7.8,1.81,7.88,4.6,7.88S532.85,586.44,532.85,581.43Zm12.71-9.27h1.73l-16.55,30.73H529Zm-3.71,21.37c0-5.93,2.43-9.27,6.35-9.27s6.34,3.34,6.34,9.27-2.43,9.36-6.34,9.36S541.85,599.54,541.85,593.53Zm10.95,0c0-5-1.81-7.79-4.6-7.79s-4.6,2.78-4.6,7.79,1.81,7.88,4.6,7.88S552.8,598.54,552.8,593.53Z"/></g></svg>